<svg xmlns="http://www.w3.org/2000/svg" version="1.1" xmlns:xlink="http://www.w3.org/1999/xlink" width="1500" height="1500" viewBox="0 0 1500 1500"><rect width="1500" height="1500" x="0" y="0" id="background" stroke="transparent" fill="#000000"></rect><svg xml:space="preserve" width="1000" height="1000" data-version="2" data-id="lg_PAqTbWSawaehEqnu9y" viewBox="0 0 223 223" x="250" y="250"><rect width="100%" height="100%" fill="transparent"></rect><path fill="#454545" d="M197.218 2.251H22.42c-11.093 0-20.169 9.076-20.169 20.169v174.798c0 11.093 9.076 20.169 20.169 20.169h174.798c11.09 0 20.169-9.076 20.169-20.169V22.42c0-11.093-9.08-20.169-20.169-20.169M173.032 26.74h20.122v16.51h-20.122zm-146.548 0h80.498v16.51H26.484zM194.96 190.868H24.676V64.926h170.283z"></path><path fill="#454545" d="m81.784 142.694-31.598-19.227 31.598-18.522V85.28l-45.313 30.052v16.707l45.313 30.186zm101.383-27.362L137.854 85.28v19.665l31.598 18.522-31.598 19.227v19.53l45.313-30.185zm-55.263-39.33h-13.312l-22.858 95.5h13.043z"></path></svg></svg>