<svg xmlns="http://www.w3.org/2000/svg" version="1.1" xmlns:xlink="http://www.w3.org/1999/xlink" xmlns:svgjs="http://svgjs.dev/svgjs" width="1500" height="1500" viewBox="0 0 1500 1500"><rect width="1500" height="1500" fill="#ffffff"></rect><g transform="matrix(0.6666666666666666,0,0,0.6666666666666666,247.62613808251797,128)"><svg viewBox="0 0 200 248" data-background-color="#030f18" preserveAspectRatio="xMidYMid meet" height="1860" width="1500" xmlns="http://www.w3.org/2000/svg" xmlns:xlink="http://www.w3.org/1999/xlink"><g id="tight-bounds" transform="matrix(1,0,0,1,0.4747723834964006,0.4000000000000057)"><svg viewBox="0 0 199.0504552330072 247.2" height="247.2" width="199.0504552330072"><g><svg viewBox="0 0 395.52 491.19477715108997" height="247.2" width="199.0504552330072"><g transform="matrix(1,0,0,1,0,291.56027478142175)"><svg viewBox="0 0 395.52 199.63450236966824" height="199.63450236966824" width="395.52"><g id="textblocktransform"><svg viewBox="0 0 395.52 199.63450236966824" height="199.63450236966824" width="395.52" id="textblock"><g><svg viewBox="0 0 395.52 199.63450236966824" height="199.63450236966824" width="395.52"><g transform="matrix(1,0,0,1,0,0)"><svg width="395.52" viewBox="3.49 -26 51.51 26" height="199.63450236966824" data-palette-color="#8dff91"><path d="M3.49-4.81L19.7-4.81 19.7-10.84 8.3-10.84Q7.3-10.84 6.42-11.22 5.54-11.6 4.9-12.24 4.25-12.89 3.87-13.77 3.49-14.65 3.49-15.65L3.49-15.65 3.49-21.19Q3.49-22.19 3.87-23.07 4.25-23.95 4.9-24.6 5.54-25.24 6.42-25.62 7.3-26 8.3-26L8.3-26 23.51-26 23.51-21.19 8.3-21.19 8.3-15.65 19.7-15.65Q20.7-15.65 21.57-15.27 22.44-14.89 23.1-14.25 23.75-13.6 24.13-12.72 24.51-11.84 24.51-10.84L24.51-10.84 24.51-4.81Q24.51-3.81 24.13-2.93 23.75-2.05 23.1-1.4 22.44-0.76 21.57-0.38 20.7 0 19.7 0L19.7 0 3.49 0 3.49-4.81ZM55-21.19L55 0 50.19 0 50.19-21.19 36.79-21.19 36.79 0 32 0 32-26 36.79-26 36.79-21.41Q36.84-22.36 37.23-23.21 37.62-24.05 38.27-24.67 38.91-25.29 39.77-25.65 40.62-26 41.6-26L41.6-26 50.19-26Q51.19-26 52.07-25.62 52.95-25.24 53.6-24.6 54.25-23.95 54.62-23.07 55-22.19 55-21.19L55-21.19Z" opacity="1" transform="matrix(1,0,0,1,0,0)" fill="#000000" class="wordmark-text-0" data-fill-palette-color="primary" id="text-0"></path></svg></g></svg></g></svg></g></svg></g><g transform="matrix(1,0,0,1,75.54432,0)"><svg viewBox="0 0 244.43135999999998 244.43135999999998" height="244.43135999999998" width="244.43135999999998"><g><svg xmlns="http://www.w3.org/2000/svg" xmlns:xlink="http://www.w3.org/1999/xlink" version="1.1" x="0" y="0" viewBox="0.5 0.5 71 71" enable-background="new 0 0 72 72" xml:space="preserve" height="244.43135999999998" width="244.43135999999998" class="icon-icon-0" data-fill-palette-color="accent" id="icon-0"><g fill="#8dff91" data-fill-palette-color="accent"><g fill="#8dff91" data-fill-palette-color="accent"><g fill="#8dff91" data-fill-palette-color="accent"><path d="M48.4 38.1C47.7 38.1 47 37.8 46.5 37.2 45.6 36.2 45.8 34.6 46.7 33.7L49.8 30.6C50.1 30.3 50.1 29.9 49.8 29.6L46.7 26.5C45.8 25.6 45.6 24.1 46.4 23.1 47.4 21.9 49.1 21.9 50.1 22.9L55.6 28.4C56.1 28.9 56.3 29.5 56.3 30.2S56 31.5 55.6 32L50.1 37.5C49.6 37.9 49 38.1 48.4 38.1" fill="#000000" data-fill-palette-color="accent"></path></g><g fill="#8dff91" data-fill-palette-color="accent"><path d="M23.6 38.1C23 38.1 22.3 37.9 21.8 37.4L16.4 32C15.9 31.5 15.7 30.9 15.7 30.2S16 28.9 16.4 28.4L21.8 23C22.7 22.1 24.2 21.9 25.2 22.7 26.4 23.7 26.4 25.4 25.4 26.4L22.2 29.6C21.9 29.9 21.9 30.3 22.2 30.6L25.3 33.7C26.2 34.6 26.4 36.2 25.5 37.2 25 37.8 24.3 38.1 23.6 38.1" fill="#000000" data-fill-palette-color="accent"></path></g></g><g fill="#8dff91" data-fill-palette-color="accent"><path d="M32.7 41.9C32.4 41.9 32.1 41.9 31.9 41.8 30.6 41.3 29.9 39.9 30.4 38.6L37 20.2C37.5 18.9 38.9 18.2 40.2 18.7S42.2 20.6 41.7 21.9L35.1 40.3C34.7 41.2 33.7 41.9 32.7 41.9" fill="#000000" data-fill-palette-color="accent"></path></g><g fill="#8dff91" data-fill-palette-color="accent"><path d="M69.8 0.5H2.2C1.3 0.5 0.5 1.3 0.5 2.2V69.8C0.5 70.7 1.3 71.5 2.2 71.5H69.8C70.7 71.5 71.5 70.7 71.5 69.8V2.2C71.5 1.3 70.7 0.5 69.8 0.5M25 4.5C26.2 4.5 27.1 5.4 27.1 6.6S26.2 8.7 25 8.7 22.9 7.8 22.9 6.6 23.8 4.5 25 4.5M16.1 4.5C17.3 4.5 18.2 5.4 18.2 6.6S17.3 8.7 16.1 8.7C15 8.7 14 7.8 14 6.6S15 4.5 16.1 4.5M7.3 4.5C8.5 4.5 9.4 5.4 9.4 6.6S8.5 8.7 7.3 8.7 5.2 7.8 5.2 6.6 6.1 4.5 7.3 4.5M5.5 64.8V16.5C5.5 15.6 6.3 14.8 7.2 14.8H64.8C65.7 14.8 66.5 15.6 66.5 16.5V46C66.4 46 66.4 45.9 66.3 45.9 65.9 45.8 65.7 45.4 65.7 45.1V41.6C65.7 41.1 65.3 40.7 64.8 40.7H59C58.5 40.7 58.1 41.1 58.1 41.6V45.1C58.1 45.5 57.8 45.8 57.5 45.9 56.7 46.1 56 46.5 55.3 46.8 55 47 54.5 46.9 54.3 46.7L52 44.5C51.4 43.9 50.9 43.9 50.5 44.3L46.4 48.4C46 48.8 46 49.3 46.4 49.7L48.8 52.1C49.1 52.4 49.1 52.8 49 53.1 48.6 53.8 48.3 54.6 48.1 55.3 48 55.7 47.6 56 47.2 56H43.7C43.2 56 42.8 56.4 42.8 56.9V62.7C42.8 63.2 43.2 63.6 43.7 63.6H47.2C47.6 63.6 47.9 63.9 48 64.2 48.1 64.6 48.3 65.1 48.5 65.5 48.7 66 48.3 66.6 47.8 66.6H7.2C6.3 66.5 5.5 65.7 5.5 64.8M64.8 66.5H56.4C56.1 66.5 55.8 66.4 55.6 66.2 53.7 64.3 52.6 61.5 53 58.5 53.5 54.6 56.7 51.4 60.6 50.8 62.8 50.5 64.9 50.9 66.6 52V64.8C66.5 65.7 65.7 66.5 64.8 66.5" fill="#000000" data-fill-palette-color="accent"></path></g></g></svg></g></svg></g><g></g></svg></g><defs></defs></svg><rect width="199.0504552330072" height="247.2" fill="none" stroke="none" visibility="hidden"></rect></g></svg></g></svg>