<svg xmlns="http://www.w3.org/2000/svg" version="1.1" xmlns:xlink="http://www.w3.org/1999/xlink" xmlns:svgjs="http://svgjs.dev/svgjs" width="2000" height="1010" viewBox="0 0 2000 1010"><g transform="matrix(1,0,0,1,-1.2121212121212466,-0.9228815165876654)"><svg viewBox="0 0 396 200" data-background-color="#030f18" preserveAspectRatio="xMidYMid meet" height="1010" width="2000" xmlns="http://www.w3.org/2000/svg" xmlns:xlink="http://www.w3.org/1999/xlink"><g id="tight-bounds" transform="matrix(1,0,0,1,0.2400000000000091,0.18274881516587982)"><svg viewBox="0 0 395.52 199.63450236966824" height="199.63450236966824" width="395.52"><g><svg viewBox="0 0 395.52 199.63450236966824" height="199.63450236966824" width="395.52"><g><svg viewBox="0 0 395.52 199.63450236966824" height="199.63450236966824" width="395.52"><g id="textblocktransform"><svg viewBox="0 0 395.52 199.63450236966824" height="199.63450236966824" width="395.52" id="textblock"><g><svg viewBox="0 0 395.52 199.63450236966824" height="199.63450236966824" width="395.52"><g transform="matrix(1,0,0,1,0,0)"><svg width="395.52" viewBox="3.49 -26 51.51 26" height="199.63450236966824" data-palette-color="#8dff91"><path d="M3.49-4.81L19.7-4.81 19.7-10.84 8.3-10.84Q7.3-10.84 6.42-11.22 5.54-11.6 4.9-12.24 4.25-12.89 3.87-13.77 3.49-14.65 3.49-15.65L3.49-15.65 3.49-21.19Q3.49-22.19 3.87-23.07 4.25-23.95 4.9-24.6 5.54-25.24 6.42-25.62 7.3-26 8.3-26L8.3-26 23.51-26 23.51-21.19 8.3-21.19 8.3-15.65 19.7-15.65Q20.7-15.65 21.57-15.27 22.44-14.89 23.1-14.25 23.75-13.6 24.13-12.72 24.51-11.84 24.51-10.84L24.51-10.84 24.51-4.81Q24.51-3.81 24.13-2.93 23.75-2.05 23.1-1.4 22.44-0.76 21.57-0.38 20.7 0 19.7 0L19.7 0 3.49 0 3.49-4.81ZM55-21.19L55 0 50.19 0 50.19-21.19 36.79-21.19 36.79 0 32 0 32-26 36.79-26 36.79-21.41Q36.84-22.36 37.23-23.21 37.62-24.05 38.27-24.67 38.91-25.29 39.77-25.65 40.62-26 41.6-26L41.6-26 50.19-26Q51.19-26 52.07-25.62 52.95-25.24 53.6-24.6 54.25-23.95 54.62-23.07 55-22.19 55-21.19L55-21.19Z" opacity="1" transform="matrix(1,0,0,1,0,0)" fill="#8dff91" class="wordmark-text-0" data-fill-palette-color="primary" id="text-0"></path></svg></g></svg></g></svg></g></svg></g><g></g></svg></g><defs></defs></svg><rect width="395.52" height="199.63450236966824" fill="none" stroke="none" visibility="hidden"></rect></g></svg></g></svg>