<svg xmlns="http://www.w3.org/2000/svg" version="1.1" xmlns:xlink="http://www.w3.org/1999/xlink" width="1500" height="389" viewBox="0 0 1500 389"><svg xml:space="preserve" width="1500" height="389" data-version="2" data-id="lg_O9dP9lZufRDDHdso5z" viewBox="0 0 298 389" x="0" y="0"><rect width="100%" height="100%" fill="transparent"></rect><path fill="#d6fad7" d="M94.66 356.986v-34.01h-64.3q-5.65 0-10.61-2.14-4.95-2.13-8.6-5.78-3.65-3.65-5.78-8.61-2.14-4.95-2.14-10.6v-31.26q0-5.64 2.14-10.6 2.13-4.95 5.78-8.6 3.65-3.65 8.6-5.79 4.96-2.13 10.61-2.13h85.78v27.12H30.36v31.26h64.3q5.65 0 10.53 2.14 4.89 2.13 8.61 5.78 3.72 3.65 5.85 8.61 2.14 4.95 2.14 10.6v34.01q0 5.64-2.14 10.6-2.13 4.96-5.85 8.61-3.72 3.65-8.61 5.78-4.88 2.13-10.53 2.13H3.23v-27.12Z"></path><rect width="118.56" height="146.64" x="-59.28" y="-73.32" fill="none" rx="0" ry="0" transform="translate(63.01 311.29)"></rect><path fill="#d6fad7" d="M293.77 384.106h-27.13v-119.52h-75.59v119.52h-26.99v-146.64h26.99v25.89q.27-5.37 2.48-10.12 2.2-4.76 5.85-8.27 3.65-3.51 8.47-5.5 4.82-2 10.32-2h48.47q5.65 0 10.6 2.13 4.96 2.14 8.61 5.79 3.65 3.65 5.78 8.6 2.14 4.96 2.14 10.6Z"></path><rect width="129.71" height="146.64" x="-64.86" y="-73.32" fill="none" rx="0" ry="0" transform="translate(229.41 311.29)"></rect><path fill="#d6fad7" d="M180.605 108.75c-1.952 0-3.904-.837-5.298-2.51-2.51-2.79-1.953-7.251.557-9.76l8.645-8.646c.837-.836.837-1.952 0-2.788l-8.645-8.645c-2.51-2.51-3.067-6.693-.836-9.482 2.788-3.346 7.53-3.346 10.318-.558L200.684 81.7c1.394 1.394 1.952 3.068 1.952 5.02s-.837 3.625-1.952 5.02l-15.338 15.337a7.573 7.573 0 0 1-4.74 1.673m-69.16 0c-1.673 0-3.625-.558-5.02-1.953L91.368 91.738c-1.395-1.394-1.952-3.067-1.952-5.02s.836-3.625 1.952-5.019l15.059-15.059c2.51-2.51 6.693-3.067 9.481-.837 3.347 2.79 3.347 7.53.558 10.319l-8.924 8.924c-.836.836-.836 1.952 0 2.788l8.645 8.645c2.51 2.51 3.068 6.972.558 9.76-1.395 1.674-3.347 2.51-5.299 2.51m25.377 10.597c-.836 0-1.673 0-2.23-.28-3.626-1.394-5.578-5.298-4.184-8.923l18.406-51.312c1.394-3.626 5.298-5.578 8.924-4.183 3.625 1.394 5.577 5.298 4.183 8.924l-18.406 51.312c-1.115 2.51-3.904 4.462-6.693 4.462"></path><path fill="#d6fad7" d="M240.283 3.894H51.767c-2.51 0-4.74 2.231-4.74 4.741v188.516c0 2.51 2.23 4.741 4.74 4.741h188.516c2.51 0 4.741-2.23 4.741-4.74V8.634c0-2.51-2.23-4.74-4.74-4.74M115.35 15.05c3.346 0 5.856 2.51 5.856 5.856 0 3.347-2.51 5.857-5.857 5.857-3.346 0-5.856-2.51-5.856-5.857 0-3.346 2.51-5.856 5.857-5.856m-24.82 0c3.347 0 5.856 2.51 5.856 5.856 0 3.347-2.51 5.857-5.856 5.857-3.067 0-5.856-2.51-5.856-5.857 0-3.346 2.789-5.856 5.856-5.856m-24.54 0c3.346 0 5.856 2.51 5.856 5.856 0 3.347-2.51 5.857-5.856 5.857-3.347 0-5.857-2.51-5.857-5.857 0-3.346 2.51-5.856 5.857-5.856m-5.02 168.159V48.514c0-2.51 2.23-4.741 4.74-4.741h160.63c2.51 0 4.74 2.23 4.74 4.74v82.267c-.278 0-.278-.279-.557-.279-1.116-.279-1.673-1.394-1.673-2.23v-9.761a2.5 2.5 0 0 0-2.51-2.51h-16.175a2.5 2.5 0 0 0-2.51 2.51v9.76c0 1.116-.836 1.952-1.673 2.231-2.23.558-4.183 1.674-6.135 2.51-.836.558-2.23.279-2.789-.279l-6.414-6.135c-1.673-1.673-3.067-1.673-4.183-.558l-11.433 11.434c-1.116 1.116-1.116 2.51 0 3.625l6.693 6.693c.836.837.836 1.952.557 2.789-1.115 1.952-1.952 4.183-2.51 6.135-.278 1.116-1.394 1.952-2.51 1.952h-9.76a2.5 2.5 0 0 0-2.51 2.51v16.174a2.5 2.5 0 0 0 2.51 2.51h9.76c1.116 0 1.953.837 2.232 1.674.278 1.115.836 2.51 1.394 3.625.558 1.394-.558 3.067-1.952 3.067H65.71c-2.51-.278-4.741-2.51-4.741-5.02m165.37 4.74h-23.425c-.837 0-1.674-.278-2.231-.836a25.564 25.564 0 0 1-7.25-21.473c1.393-10.876 10.317-19.8 21.193-21.473 6.135-.837 11.992.279 16.732 3.346v35.696c-.278 2.51-2.51 4.74-5.02 4.74"></path></svg></svg>